<svg xmlns="http://www.w3.org/2000/svg" width="301" height="112.233" viewBox="40.001 76.767 301 112.233"><g data-name="Ebene_1"><g data-name="Group 504"><g data-name="Group 501"><g data-name="Group 487"><g data-name="Group 486"><path d="M105.644 138.019c-1.538 5.26-4.391 13.148-6.029 16.547-3.175.645-11.734 2.63-20.045 2.63-26.198 0-39.57-17.416-39.57-36.593 0-22.352 16.995-37.808 41.53-37.808 9.427 0 17.093 1.985 20.715 2.53.447 4.938 1.216 11.512 2.084 16.994l-3.399.77c-2.183-7.344-4.813-11.834-10.42-14.141-2.852-1.315-7.343-2.084-11.51-2.084-18.086 0-27.612 13.372-27.612 31.457 0 21.161 10.965 34.732 28.703 34.732 11.189 0 16.647-5.16 22.253-16.101l3.3 1.067Z" fill="#13172b" fill-rule="evenodd" data-name="Path 101"/></g></g><g data-name="Group 489"><g data-name="Group 488"><path d="M144.42 155.558v-3.076c6.35-.645 9.278-1.216 9.278-8.435v-17.961c0-9.105-3.498-13.694-10.842-13.595-4.167 0-8.559 2.084-11.61 5.706v25.85c0 7.12 2.927 7.79 9.502 8.435v3.076h-28.009v-3.076c6.35-.546 9.824-1.092 9.824-8.435V91.23c0-5.805-2.382-7.244-9.725-7.889v-2.853c5.805-.546 14.439-2.183 18.383-3.721v37.386c3.945-3.944 9.973-7.988 15.878-7.988 8.98 0 15.232 5.582 15.232 18.73v19.276c0 7.244 2.927 7.79 9.278 8.336v3.076h-27.19Z" fill="#13172b" fill-rule="evenodd" data-name="Path 102"/></g></g><g data-name="Group 494"><g data-name="Group 491"><g data-name="Group 490"><path d="M264.194 96.266c3.076 0 5.483-2.63 5.483-5.582 0-3.398-2.407-5.805-5.359-5.805-3.175 0-5.706 2.407-5.706 5.805 0 2.953 2.506 5.582 5.582 5.582Z" fill="#13172b" fill-rule="evenodd" data-name="Path 103"/></g></g><g data-name="Group 493"><g data-name="Group 492"><path d="M251.517 112.937c6.897.993 9.502 1.415 9.502 8.758v21.707c0 10.072-.224 16.647-.869 21.26-.645 3.722-1.538 6.129-2.852 7.667-1.539 1.984-4.392 3.076-8.435 4.168-1.315.446-1.762 1.091-1.762 2.53 0 2.63 2.407 4.937 4.044 4.937.868 0 1.761-.323 2.853-1.216 2.53-2.183 9.303-10.42 13.148-21.36 2.084-5.929 2.53-10.519 2.53-17.862v-37.585c-4.713 1.985-12.23 3.4-18.159 4.268v2.728Z" fill="#13172b" fill-rule="evenodd" data-name="Path 104"/></g></g></g><g data-name="Group 496"><g data-name="Group 495"><path d="M334.08 153.053c-5.26.769-13.224 2.183-18.805 3.845v-8.435c-5.93 4.937-10.742 8.435-16.77 8.435-7.344 0-13.695-4.49-13.695-16.448v-21.26c0-5.93-.868-6.575-3.622-7.12l-5.11-.547v-2.853c4.713-.223 13.991-1.314 17.713-1.984-.323 3.498-.323 8.757-.323 16.001v14.91c0 9.65 5.036 12.38 9.973 12.38 4.044 0 8.112-1.762 11.834-5.26v-25.528c0-5.93-1.315-6.673-5.036-7.244l-5.558-.446v-2.853c7.021-.323 16.721-1.539 19.252-1.985v36.716c0 5.483.868 6.252 5.036 6.475l5.11.1v3.1Z" fill="#13172b" fill-rule="evenodd" data-name="Path 105"/></g></g><g data-name="Group 500"><g data-name="Group 498"><g data-name="Group 497"><path d="M201.479 103.064c-13.05 0-27.389 8.881-27.389 26.966 0 13.695 10.072 26.967 27.612 26.967h19.326c14.24 0 27.289-10.295 27.289-27.512 0-15.01-11.387-26.421-27.513-26.421H201.48Zm18.358 3.746c12.156 0 18.308 11.833 18.308 24.213 0 16.324-7.665 22.253-16.001 22.253h-19.326c-10.965 0-18.532-10.519-18.532-24.982 0-14.91 7.666-21.484 16.225-21.484h19.326Z" fill="#13172b" fill-rule="evenodd" data-name="Path 106"/></g></g><g data-name="Group 499"><path d="M232.315 93.736s-7.219.546-21.112.546c-13.892 0-21.111-.546-21.111-.546V87.41s7.219-.546 21.111-.546c13.893 0 21.112.546 21.112.546v6.326Z" fill="#13172b" fill-rule="evenodd" data-name="Path 107"/></g></g></g><g data-name="Group 502"><path d="M70.515 172.676v-6.897H72.6v17.118h-2.084v-8.211h-7.988v8.211h-2.084V165.78h2.084v6.897h7.988Z" fill="#eb968a" fill-rule="evenodd" data-name="Path 108"/><path d="M85.524 177.588c0 3.2-2.456 5.656-5.557 5.656-3.126 0-5.557-2.456-5.557-5.656 0-3.2 2.456-5.656 5.557-5.656 3.101 0 5.557 2.456 5.557 5.656Zm-9.13 0c0 2.01 1.588 3.697 3.573 3.697 1.985 0 3.572-1.712 3.572-3.697 0-2.01-1.587-3.696-3.572-3.696s-3.572 1.687-3.572 3.696Z" fill="#eb968a" fill-rule="evenodd" data-name="Path 109"/><path d="M89.196 173.594h.05c.57-.943 1.637-1.662 2.753-1.662 1.365 0 2.332.695 3.002 1.885.645-1.14 1.885-1.885 3.2-1.885 2.73 0 3.449 2.183 3.449 4.59v6.35h-2.01v-6.028c0-1.365-.174-3.101-1.935-3.101-2.133 0-2.282 2.282-2.282 3.895v5.234h-2.01v-5.631c0-1.39-.074-3.498-1.91-3.498-2.134 0-2.307 2.257-2.307 3.895v5.234h-2.01v-10.618h2.01v1.34Z" fill="#eb968a" fill-rule="evenodd" data-name="Path 110"/><path d="M105.445 177.91c.025 1.812 1.216 3.523 3.126 3.523 1.538 0 2.357-.793 3.126-2.059l1.687.968c-.968 1.836-2.803 2.902-4.838 2.902-3.175 0-5.11-2.456-5.11-5.581 0-3.275 1.712-5.731 5.086-5.731 3.324 0 4.862 2.505 4.862 5.656v.323h-7.939Zm5.954-1.538c-.248-1.587-1.265-2.654-2.877-2.654-1.563 0-2.705 1.141-2.953 2.654h5.83Z" fill="#eb968a" fill-rule="evenodd" data-name="Path 111"/><path d="M131.097 177.588c0 3.2-2.456 5.656-5.557 5.656-3.126 0-5.557-2.456-5.557-5.656 0-3.2 2.456-5.656 5.557-5.656 3.126 0 5.557 2.456 5.557 5.656Zm-9.104 0c0 2.01 1.587 3.697 3.572 3.697s3.572-1.712 3.572-3.697c0-2.01-1.587-3.696-3.572-3.696-2.01 0-3.572 1.687-3.572 3.696Z" fill="#eb968a" fill-rule="evenodd" data-name="Path 112"/><path d="M138.019 165.234c-.397-.174-.918-.422-1.34-.422-1.414 0-1.414 1.836-1.414 2.878v4.564h2.754v1.91h-2.754v8.733h-2.01v-8.732h-.917v-1.91h.918v-5.186c0-2.307.769-4.167 3.349-4.167.496 0 .967.099 1.414.272v2.06Z" fill="#eb968a" fill-rule="evenodd" data-name="Path 113"/><path d="M145.759 177.91c.025 1.812 1.216 3.523 3.126 3.523 1.538 0 2.357-.793 3.126-2.059l1.687.968c-.968 1.836-2.804 2.902-4.838 2.902-3.175 0-5.11-2.456-5.11-5.581 0-3.275 1.711-5.731 5.085-5.731 3.325 0 4.863 2.505 4.863 5.656v.323h-7.939Zm5.93-1.538c-.249-1.587-1.266-2.654-2.879-2.654-1.563 0-2.704 1.141-2.952 2.654h5.83Z" fill="#eb968a" fill-rule="evenodd" data-name="Path 114"/><path d="M157.17 174.04h.05c.82-1.265 2.06-2.083 3.622-2.083 3.002 0 4.888 2.654 4.888 5.557 0 3.051-1.786 5.755-4.987 5.755-1.463 0-2.729-.818-3.547-2.01h-.025V189h-2.01v-16.72h2.01v1.76Zm6.575 3.523c0-2.059-1.216-3.82-3.374-3.82-2.059 0-3.3 1.836-3.3 3.82 0 2.01 1.191 3.87 3.3 3.87 2.158 0 3.374-1.761 3.374-3.87Z" fill="#eb968a" fill-rule="evenodd" data-name="Path 115"/><path d="M170.443 167.392c0 .769-.62 1.39-1.389 1.39s-1.39-.621-1.39-1.39c0-.794.621-1.439 1.39-1.439.77 0 1.39.645 1.39 1.439Zm-.397 15.505h-2.01V172.28h2.01v10.618Z" fill="#eb968a" fill-rule="evenodd" data-name="Path 116"/><path d="M182.922 182.674c0 3.647-1.017 6.301-5.086 6.301-2.902 0-4.986-1.81-5.036-4.813h2.01c0 1.91 1.29 3.002 3.125 3.002 2.481 0 2.977-1.736 2.977-3.895v-2.01h-.05c-.793 1.216-2.058 2.01-3.547 2.01-3.2 0-4.986-2.704-4.986-5.755 0-2.903 1.885-5.557 4.887-5.557 1.563 0 2.803.818 3.622 2.133h.05v-1.81h2.01v10.394h.024Zm-1.886-5.11c0-2.06-1.215-3.821-3.373-3.821-2.06 0-3.3 1.836-3.3 3.82 0 2.01 1.19 3.87 3.3 3.87 2.158 0 3.373-1.761 3.373-3.87Z" fill="#eb968a" fill-rule="evenodd" data-name="Path 117"/><path d="M186.643 177.91c.025 1.812 1.216 3.523 3.126 3.523 1.538 0 2.357-.793 3.126-2.059l1.687.968c-.968 1.836-2.804 2.902-4.838 2.902-3.175 0-5.11-2.456-5.11-5.581 0-3.275 1.711-5.731 5.085-5.731 3.325 0 4.863 2.505 4.863 5.656v.323h-7.939Zm5.93-1.538c-.249-1.587-1.266-2.654-2.878-2.654-1.563 0-2.704 1.141-2.953 2.654h5.83Z" fill="#eb968a" fill-rule="evenodd" data-name="Path 118"/><path d="M198.204 173.693h.05c.62-1.141 1.86-1.736 3.125-1.736 2.928 0 3.697 2.01 3.697 4.614v6.326h-2.01v-6.103c0-1.81-.248-3.051-2.282-3.051-2.58 0-2.58 2.307-2.58 4.242v4.887h-2.01v-10.618h2.01v1.44Z" fill="#eb968a" fill-rule="evenodd" data-name="Path 119"/><path d="M208.97 177.91c.026 1.812 1.216 3.523 3.127 3.523 1.538 0 2.356-.793 3.125-2.059l1.687.968c-.967 1.836-2.803 2.902-4.837 2.902-3.176 0-5.11-2.456-5.11-5.581 0-3.275 1.711-5.731 5.085-5.731 3.324 0 4.862 2.505 4.862 5.656v.323h-7.938Zm5.93-1.538c-.248-1.587-1.265-2.654-2.878-2.654-1.563 0-2.704 1.141-2.952 2.654h5.83Z" fill="#eb968a" fill-rule="evenodd" data-name="Path 120"/><path d="M220.83 182.897h-2.01v-8.732h-1.092v-1.91h1.092v-4.07h2.01v4.07h1.959v1.91h-1.96v8.732Z" fill="#eb968a" fill-rule="evenodd" data-name="Path 121"/><path d="M226.61 167.392c0 .769-.62 1.39-1.39 1.39-.744 0-1.389-.621-1.389-1.39 0-.794.62-1.439 1.39-1.439a1.43 1.43 0 0 1 1.388 1.439Zm-.373 15.505h-2.01V172.28h2.01v10.618Z" fill="#eb968a" fill-rule="evenodd" data-name="Path 122"/><path d="M237.004 175.28c-.794-.942-1.786-1.438-2.977-1.438-1.96 0-3.473 1.761-3.473 3.721 0 2.183 1.489 3.771 3.597 3.771 1.166 0 2.084-.546 2.853-1.414v2.605c-.918.496-1.836.695-2.878.695-3.076 0-5.581-2.407-5.581-5.582 0-3.3 2.48-5.731 5.705-5.731.943 0 1.96.223 2.754.695v2.679Z" fill="#eb968a" fill-rule="evenodd" data-name="Path 123"/></g><g data-name="Group 503"><path d="M275.556 163.174v10.52h.05c.645-1.142 1.91-1.737 3.2-1.737 3.002 0 3.771 2.009 3.771 4.614v6.326h-2.034v-6.103c0-1.81-.248-3.051-2.332-3.051-2.63 0-2.63 2.307-2.63 4.242v4.887h-2.034V163.15h2.01Z" fill="#eb968a" fill-rule="evenodd" data-name="Path 124"/><path d="M286.67 177.91c.025 1.812 1.241 3.523 3.2 3.523 1.564 0 2.407-.794 3.176-2.059l1.737.968c-.992 1.836-2.853 2.902-4.937 2.902-3.25 0-5.234-2.456-5.234-5.581 0-3.275 1.736-5.731 5.184-5.731 3.375 0 4.962 2.505 4.962 5.656v.323h-8.087Zm6.054-1.538c-.248-1.587-1.29-2.654-2.928-2.654-1.587 0-2.778 1.141-3.026 2.654h5.954Z" fill="#eb968a" fill-rule="evenodd" data-name="Path 125"/><path d="M306.542 182.897h-2.034v-1.662h-.05c-.819 1.216-2.084 2.01-3.622 2.01-3.25 0-5.086-2.705-5.086-5.756 0-2.903 1.936-5.557 5.012-5.557 1.563 0 2.828.819 3.671 2.084h.05v-1.762h2.034v10.643Zm-1.935-5.334c0-2.059-1.24-3.82-3.448-3.82-2.109 0-3.35 1.836-3.35 3.82 0 2.01 1.216 3.87 3.35 3.87 2.232 0 3.448-1.761 3.448-3.87Z" fill="#eb968a" fill-rule="evenodd" data-name="Path 126"/><path d="M311.38 182.897h-2.035v-19.723h2.035v19.723Z" fill="#eb968a" fill-rule="evenodd" data-name="Path 127"/><path d="M316.664 182.897h-2.034v-8.732h-1.117v-1.91h1.117v-4.07h2.034v4.07h2.01v1.91h-2.01v8.732Z" fill="#eb968a" fill-rule="evenodd" data-name="Path 128"/><path d="M321.874 163.174v10.52h.05c.644-1.142 1.91-1.737 3.2-1.737 3.001 0 3.77 2.009 3.77 4.614v6.326h-2.034v-6.103c0-1.81-.248-3.051-2.332-3.051-2.63 0-2.63 2.307-2.63 4.242v4.887h-2.034V163.15h2.01Z" fill="#eb968a" fill-rule="evenodd" data-name="Path 129"/></g></g><path d="M336.883 101.476h1.14l-1.165-2.034c.546-.248.918-.77.918-1.39 0-.843-.695-1.538-1.538-1.538h-2.481v4.937h.967v-1.885h1.092l1.067 1.91Zm-2.084-4.168h1.216a.73.73 0 0 1 .744.744.73.73 0 0 1-.744.745h-1.216v-1.489Z" fill="#13172b" fill-rule="evenodd" data-name="Path 130"/><path d="M335.84 93.81a5.156 5.156 0 0 0-5.16 5.16 5.156 5.156 0 0 0 5.16 5.16 5.156 5.156 0 0 0 5.161-5.16 5.156 5.156 0 0 0-5.16-5.16Zm0 9.303a4.15 4.15 0 0 1-4.142-4.143 4.15 4.15 0 0 1 4.143-4.143 4.15 4.15 0 0 1 4.143 4.143 4.15 4.15 0 0 1-4.143 4.143Z" fill="#13172b" fill-rule="evenodd" data-name="Path 131"/></g></svg>