<svg xmlns="http://www.w3.org/2000/svg" width="30.153" height="28.4"><g data-name="Group 521"><path d="M11.113 6.572C5.815 6.572 0 10.157 0 17.486 0 23.023 4.103 28.4 11.233 28.4h7.846c5.776 0 11.074-4.182 11.074-11.153 0-6.094-4.62-10.715-11.193-10.715h-7.847v.04Zm7.449 1.514c4.939 0 7.448 4.78 7.448 9.798 0 6.612-3.107 9.002-6.493 9.002h-7.846c-4.461 0-7.529-4.262-7.529-10.117 0-6.054 3.107-8.683 6.573-8.683h7.847Z" fill="#fff" fill-rule="evenodd" data-name="Path 68"/><path d="M23.66 2.788s-2.948.24-8.564.24c-5.656 0-8.564-.24-8.564-.24V.24S9.48 0 15.096 0c5.656 0 8.564.239 8.564.239v2.55Z" fill="#fff" fill-rule="evenodd" data-name="Path 69"/></g></svg>