<svg xmlns="http://www.w3.org/2000/svg" width="229.253" height="186.371" viewBox="403.354 75.629 229.253 186.371"><path d="M517.98 75.629a2.664 2.664 0 0 0-2.665 2.662V259.338A2.664 2.664 0 0 0 517.98 262a2.664 2.664 0 0 0 2.666-2.662V78.29a2.664 2.664 0 0 0-2.666-2.662Zm-18.66 26.624a2.664 2.664 0 0 0-2.665 2.663v154.422A2.664 2.664 0 0 0 499.32 262a2.664 2.664 0 0 0 2.666-2.662V104.916a2.664 2.664 0 0 0-2.666-2.663Zm-18.66 26.625a2.664 2.664 0 0 0-2.666 2.662v127.798A2.664 2.664 0 0 0 480.66 262a2.664 2.664 0 0 0 2.666-2.662V131.54a2.664 2.664 0 0 0-2.666-2.662ZM462 155.502a2.664 2.664 0 0 0-2.666 2.663v101.173A2.664 2.664 0 0 0 462 262a2.664 2.664 0 0 0 2.666-2.662V158.165a2.664 2.664 0 0 0-2.666-2.663Zm-18.66 26.625a2.664 2.664 0 0 0-2.666 2.662v74.549A2.664 2.664 0 0 0 443.34 262a2.664 2.664 0 0 0 2.666-2.662v-74.549a2.664 2.664 0 0 0-2.666-2.662Zm-18.66 26.624a2.664 2.664 0 0 0-2.666 2.663v47.924A2.664 2.664 0 0 0 424.68 262a2.664 2.664 0 0 0 2.666-2.662v-47.924a2.664 2.664 0 0 0-2.666-2.663Zm-21.326 29.287a2.664 2.664 0 0 1 2.666-2.662 2.664 2.664 0 0 1 2.665 2.662v21.3A2.664 2.664 0 0 1 406.02 262a2.664 2.664 0 0 1-2.666-2.662v-21.3Zm229.253 0a2.664 2.664 0 0 0-2.666-2.662 2.664 2.664 0 0 0-2.666 2.662v21.3a2.664 2.664 0 0 0 2.666 2.662 2.664 2.664 0 0 0 2.666-2.662v-21.3Zm-18.66-26.624a2.664 2.664 0 0 0-2.666-2.663 2.664 2.664 0 0 0-2.666 2.663v47.924a2.664 2.664 0 0 0 2.666 2.662 2.664 2.664 0 0 0 2.666-2.662v-47.924Zm-18.66-26.625a2.664 2.664 0 0 0-2.666-2.662 2.664 2.664 0 0 0-2.666 2.662v74.549a2.664 2.664 0 0 0 2.666 2.662 2.664 2.664 0 0 0 2.666-2.662v-74.549Zm-18.66-26.624a2.664 2.664 0 0 0-2.666-2.663 2.664 2.664 0 0 0-2.666 2.663v101.173a2.664 2.664 0 0 0 2.666 2.662 2.664 2.664 0 0 0 2.666-2.662V158.165Zm-18.66-26.625a2.664 2.664 0 0 0-2.666-2.662 2.664 2.664 0 0 0-2.666 2.662v127.798a2.664 2.664 0 0 0 2.666 2.662 2.664 2.664 0 0 0 2.665-2.662V131.54Zm-18.66-26.624a2.664 2.664 0 0 0-2.666-2.663 2.664 2.664 0 0 0-2.666 2.663v154.422A2.664 2.664 0 0 0 536.64 262a2.664 2.664 0 0 0 2.665-2.662V104.916Z" fill="#cccfd5" fill-rule="evenodd" data-name="Ornament 79"/></svg>