<svg xmlns="http://www.w3.org/2000/svg" width="24.738" height="24.738" viewBox="79.701 0.003 24.738 24.738"><g data-name="shopping-cart"><path d="m82.35 2.477 2.31 15.01a1.24 1.24 0 0 0 1.245 1.069H99.49c.546 0 1.028-.358 1.185-.881l3.71-12.369a1.237 1.237 0 0 0-1.184-1.592H85.044l-.407-2.644a1.228 1.228 0 0 0-.429-.776 1.234 1.234 0 0 0-.815-.29h-2.455a1.237 1.237 0 1 0 0 2.473h1.412Zm4.596 13.606-1.522-9.895h16.115l-2.968 9.895H86.946Z" fill="#fff" fill-rule="evenodd" data-name="Path 27"/><path d="M89.596 22.267a2.474 2.474 0 1 1-4.947 0 2.474 2.474 0 0 1 4.947 0Z" fill="#fff" fill-rule="evenodd" data-name="Path 28"/><path d="M100.728 22.267a2.474 2.474 0 1 1-4.948 0 2.474 2.474 0 0 1 4.948 0Z" fill="#fff" fill-rule="evenodd" data-name="Path 29"/></g></svg>