<svg xmlns="http://www.w3.org/2000/svg" width="30" height="30" viewBox="1248.125 5612 30 30"><g data-name="facebook__x2C__social__x2C__media_x2C__icon_x2C_"><path d="M1274.28 5612h-22.31a3.86 3.86 0 0 0-3.845 3.845v22.31a3.86 3.86 0 0 0 3.845 3.845h22.31a3.86 3.86 0 0 0 3.845-3.845v-22.31a3.86 3.86 0 0 0-3.845-3.845Zm-6.705 13.43-.143 1.57h-2.995v10h-4v-10h-2v-4h2v-1.815c0-1.638.783-4.198 4.217-4.198l3.096.014v3.436h-2.25c-.366 0-.875.176-.875.956V5623h3.171l-.22 2.43Z" fill="#e49d92" fill-rule="evenodd" data-name="Path 19"/></g></svg>