<svg xmlns="http://www.w3.org/2000/svg">
  <path transform="translate(1, 1)" d="M9 18c-4.963 0-9-4.038-9-9s4.037-9 9-9c4.962 0 9 4.038 9 9s-4.038 9-9 9m-1.922-5.28c.325 1.221.887 2.406 1.769 3.73l.153.228.152-.229c.808-1.21 1.42-2.499 1.77-3.726l.067-.234H7.016l.062.232Zm5.416-.087c-.248 1.076-.675 2.171-1.268 3.259l-.24.44.468-.181c1.292-.502 3.042-1.497 4.045-3.392l.143-.27h-3.115l-.033.144Zm-9.993.126c1.002 1.894 2.752 2.89 4.044 3.392l.444.172-.213-.427c-.593-1.184-1.012-2.144-1.27-3.263l-.033-.144H2.358l.143.27Zm10.356-5.595c0 .326.023.629.047.932.022.294.045.588.045.904 0 .634 0 1.181-.09 1.81l-.03.21h3.467l.04-.125A6.063 6.063 0 0 0 16.623 9c0-.681-.099-1.336-.285-1.895l-.041-.126h-3.439v.185Zm-6.182.188C6.595 7.899 6.52 8.416 6.52 9c0 .584.076 1.1.155 1.649l.054.372h4.542l.023-.158c.031-.222.074-.434.118-.641.078-.387.16-.786.16-1.222 0-.584-.076-1.1-.155-1.648l-.053-.373H6.729l-.054.373Zm-4.92-.246A6.076 6.076 0 0 0 1.468 9c0 .68.099 1.336.285 1.895l.042.126h3.439v-.184c0-.327-.023-.63-.047-.933-.022-.294-.045-.588-.045-.904 0-.633 0-1.18.09-1.81l.03-.211H1.796l-.042.127Zm9.468-5.003c.594 1.185 1.013 2.146 1.271 3.265l.033.143h3.115l-.143-.27c-1.003-1.893-2.753-2.89-4.045-3.392l-.445-.173.214.427ZM8.847 1.55C8.04 2.761 7.429 4.05 7.079 5.275l-.067.236h3.973l-.062-.232c-.326-1.22-.888-2.404-1.77-3.728L9 1.321l-.153.23Zm-2.302.298c-1.74.677-3.136 1.847-4.04 3.384l-.163.278h3.13l.034-.143c.257-1.118.676-2.079 1.27-3.265l.213-.427-.444.173Z" fill-rule="evenodd" />
</svg>
