<svg xmlns="http://www.w3.org/2000/svg" width="30" height="30" viewBox="1329.375 5612 30 30"><g data-name="linkdin__x2C__social__x2C_media_x2C__logo"><path d="M1355.53 5612h-22.31a3.86 3.86 0 0 0-3.845 3.845v22.31a3.86 3.86 0 0 0 3.845 3.845h22.31a3.86 3.86 0 0 0 3.845-3.845v-22.31a3.86 3.86 0 0 0-3.845-3.845Zm-15.842 14.488v9.262h-4.063v-11.688h4.063v2.426Zm-2.04-4.167a2.047 2.047 0 1 1 0-4.095 2.047 2.047 0 0 1 0 4.095Zm15.477 7.054v6.375h-3.5v-5.677c0-1.36-.147-3.108-2.01-3.108-1.892 0-2.178 1.48-2.178 3.01v5.775h-3.375V5624.062h3.25v1.563h.035c.485-.875 1.672-1.564 3.44-1.564 2.98 0 3.993 1.41 4.27 3.613.066.518.091 1.076.091 1.701h-.023Z" fill="#e49d92" fill-rule="evenodd" data-name="Path 24"/></g></svg>