<svg xmlns="http://www.w3.org/2000/svg" width="18" height="18" viewBox="23.001 477.34 18 18"><path d="M24.908 479.112h3.977l1.282 3.205-2.06 1.373a.886.886 0 0 0-.394.737c.002.083 0 0 0 0V484.446a1.883 1.883 0 0 0 .005.12c.005.073.014.171.032.291.034.24.1.57.23.958.26.78.77 1.788 1.764 2.782s2.003 1.505 2.783 1.765c.388.129.717.196.957.23a3.918 3.918 0 0 0 .41.036H33.914s.099-.005.001 0c.336 0 .642-.189.792-.49l.594-1.186 3.93.655v3.827c-1.871.27-6.922.537-10.89-3.432-3.97-3.969-3.703-9.02-3.432-10.89Zm4.642 5.745 1.6-1.066a1.772 1.772 0 0 0 .662-2.132l-1.282-3.205a1.772 1.772 0 0 0-1.645-1.114h-4.024c-.804 0-1.562.559-1.694 1.432-.3 1.987-.71 7.852 3.92 12.482 4.63 4.63 10.495 4.22 12.481 3.92.874-.132 1.433-.89 1.433-1.695v-3.873c0-.866-.626-1.605-1.48-1.747l-3.93-.655a1.772 1.772 0 0 0-1.876.955l-.307.614a4.173 4.173 0 0 1-.321-.093c-.55-.183-1.312-.559-2.09-1.336-.778-.778-1.153-1.54-1.336-2.09a4.06 4.06 0 0 1-.111-.397Z" fill="#fff" fill-rule="evenodd" data-name="call"/></svg>