<svg xmlns="http://www.w3.org/2000/svg" width="22.266" height="24.74" viewBox="129.402 0 22.266 24.74"><path d="M140.535 2.474a4.948 4.948 0 1 0 0 9.896 4.948 4.948 0 0 0 0-9.896Zm-7.422 4.948a7.422 7.422 0 1 1 14.844 0 7.422 7.422 0 0 1-14.844 0Zm2.474 12.37a3.711 3.711 0 0 0-3.711 3.711 1.237 1.237 0 1 1-2.474 0 6.185 6.185 0 0 1 6.185-6.185h9.896a6.185 6.185 0 0 1 6.185 6.185 1.237 1.237 0 1 1-2.474 0 3.71 3.71 0 0 0-3.711-3.71h-9.896Z" fill="#fff" fill-rule="evenodd" data-name="user"/></svg>