<svg xmlns="http://www.w3.org/2000/svg" width="30" height="30" viewBox="1370 5612 30 30"><g data-name="youtube__x2C__social__x2C_media__x2C__icons_x2C_"><g data-name="Group 46"><path d="M1382.931 5623.841v1.368l.002 4.499 5.407-2.923-2.97-1.615-2.439-1.329Z" fill="#e49d92" fill-rule="evenodd" data-name="Path 25"/><path d="M1396.155 5612h-22.31a3.859 3.859 0 0 0-3.845 3.845v22.31a3.859 3.859 0 0 0 3.845 3.845h22.31a3.859 3.859 0 0 0 3.845-3.845v-22.31a3.86 3.86 0 0 0-3.845-3.845Zm-1.155 14.496v1.29c0 1.692-.196 3.381-.196 3.381s-.192 1.438-.792 2.071c-.761.833-1.613.836-2.003.886-2.804.21-7.01.218-7.01.218s-5.205-.051-6.808-.21c-.444-.087-1.445-.06-2.208-.893-.6-.632-.788-2.072-.788-2.072s-.195-1.69-.195-3.38v-1.583c0-1.69.195-3.38.195-3.38s.192-1.438.79-2.072c.765-.832 1.615-.821 2.006-.868 2.801-.211 7.004-.197 7.004-.197h.01s4.202-.014 7.006.195c.389.049 1.243.046 2.004.877.6.633.79 2.07.79 2.07s.195 1.685.195 3.374v.293Z" fill="#e49d92" fill-rule="evenodd" data-name="Path 26"/></g></g></svg>