<svg xmlns="http://www.w3.org/2000/svg" width="571.739" height="538.507" viewBox="1007.262 80 571.739 538.507"><g data-name="Group 455"><path d="M1217.982 204.62c-100.45 0-210.72 67.974-210.72 206.943 0 104.983 77.793 206.944 212.986 206.944h148.788c109.514 0 209.965-79.303 209.965-211.475 0-115.557-87.611-203.168-212.23-203.168h-148.789v.755Zm141.236 28.7c93.653 0 141.235 90.632 141.235 185.796 0 125.375-58.911 170.69-123.11 170.69h-148.787c-84.59 0-142.746-80.813-142.746-191.838 0-114.8 58.91-164.648 124.62-164.648h148.788Z" fill="#d9dbdf" fill-rule="evenodd" data-name="Path 68"/><path d="M1455.891 132.869s-55.89 4.531-162.383 4.531c-107.248 0-162.382-4.531-162.382-4.531V84.53S1187.016 80 1293.508 80c107.249 0 162.383 4.531 162.383 4.531v48.338Z" fill="#d9dbdf" fill-rule="evenodd" data-name="Path 69"/></g></svg>